name C:\Users\r0593348\3dpredictsim\Results\Batchsim_tmt_linear\Pog_s1_tmt_aCst_d02_k2000_ig24_pas.mot
datacolumns 128
datarows 4
range 0.55216723 0.58529726
endheader
time	pelvis_tilt	pelvis_list	pelvis_rotation	pelvis_tx	pelvis_ty	pelvis_tz	hip_flexion_l	hip_adduction_l	hip_rotation_l	hip_flexion_r	hip_adduction_r	hip_rotation_r	knee_angle_l	knee_angle_r	ankle_angle_l	ankle_angle_r	subtalar_angle_l	subtalar_angle_r	tmt_angle_l	tmt_angle_r	mtp_angle_l	mtp_angle_r	lumbar_extension	lumbar_bending	lumbar_rotation	arm_flex_l	arm_add_l	arm_rot_l	arm_flex_r	arm_add_r	arm_rot_r	elbow_flex_l	elbow_flex_r	pro_sup_l	pro_sup_r	glut_med1_l/activation	glut_med2_l/activation	glut_med3_l/activation	glut_min1_l/activation	glut_min2_l/activation	glut_min3_l/activation	semimem_l/activation	semiten_l/activation	bifemlh_l/activation	bifemsh_l/activation	sar_l/activation	add_long_l/activation	add_brev_l/activation	add_mag1_l/activation	add_mag2_l/activation	add_mag3_l/activation	tfl_l/activation	pect_l/activation	grac_l/activation	glut_max1_l/activation	glut_max2_l/activation	glut_max3_l/activation	iliacus_l/activation	psoas_l/activation	quad_fem_l/activation	gem_l/activation	peri_l/activation	rect_fem_l/activation	vas_med_l/activation	vas_int_l/activation	vas_lat_l/activation	med_gas_l/activation	lat_gas_l/activation	soleus_l/activation	tib_post_l/activation	flex_dig_l/activation	flex_hal_l/activation	tib_ant_l/activation	per_brev_l/activation	per_long_l/activation	per_tert_l/activation	ext_dig_l/activation	ext_hal_l/activation	ercspn_l/activation	intobl_l/activation	extobl_l/activation	glut_med1_r/activation	glut_med2_r/activation	glut_med3_r/activation	glut_min1_r/activation	glut_min2_r/activation	glut_min3_r/activation	semimem_r/activation	semiten_r/activation	bifemlh_r/activation	bifemsh_r/activation	sar_r/activation	add_long_r/activation	add_brev_r/activation	add_mag1_r/activation	add_mag2_r/activation	add_mag3_r/activation	tfl_r/activation	pect_r/activation	grac_r/activation	glut_max1_r/activation	glut_max2_r/activation	glut_max3_r/activation	iliacus_r/activation	psoas_r/activation	quad_fem_r/activation	gem_r/activation	peri_r/activation	rect_fem_r/activation	vas_med_r/activation	vas_int_r/activation	vas_lat_r/activation	med_gas_r/activation	lat_gas_r/activation	soleus_r/activation	tib_post_r/activation	flex_dig_r/activation	flex_hal_r/activation	tib_ant_r/activation	per_brev_r/activation	per_long_r/activation	per_tert_r/activation	ext_dig_r/activation	ext_hal_r/activation	ercspn_r/activation	intobl_r/activation	extobl_r/activation	
          0.55216723	         -2.92526657	          2.58516916	         -6.17276951	          0.69020904	          0.85500150	          0.00300314	         31.62691797	          3.34791318	         -3.00273118	        -18.78802114	         -2.39957879	          7.08268425	        -14.20421837	         -7.15161321	          6.58331059	          0.78120084	         -3.87493330	         10.70179306	          0.01677199	          0.51017447	         -0.11443083	         22.69325761	         -2.12927900	         -0.96320597	          2.17326679	         -9.99437307	        -13.55250921	          8.75760161	          9.30808935	        -13.46217386	         18.86775237	         12.32094073	         37.81354022	         86.51662706	         86.51662706	          0.05000038	          0.05000026	          0.05000005	          0.05920277	          0.05920271	          0.05000045	          0.05920281	          0.05000031	          0.32378532	          0.05000011	          0.05000061	          0.11636758	          0.27201181	          0.13608925	          0.13012573	          0.13285411	          0.05000006	          0.06337265	          0.08408654	          0.05000012	          0.15299730	          0.17306081	          0.05920282	          0.05504825	          0.14327901	          0.20698163	          0.13428571	          0.05745821	          0.16643711	          0.15746788	          0.14443070	          0.05000000	          0.05000001	          0.05000000	          0.05000000	          0.05000009	          0.05000007	          0.61491751	          0.36993183	          0.21164283	          0.39818212	          0.58986761	          0.33438987	          0.06869791	          0.09049233	          0.09805358	          0.23902564	          0.09160458	          0.06655576	          0.29988777	          0.18938552	          0.09827823	          0.05000068	          0.05000007	          0.05000005	          0.07441098	          0.10265543	          0.12313765	          0.07805896	          0.05000130	          0.05000094	          0.05000023	          0.31650043	          0.11643821	          0.05000177	          0.05000079	          0.05000047	          0.05000037	          0.41003711	          0.66385541	          0.05000017	          0.05000029	          0.05000006	          0.25580239	          0.09703425	          0.08647774	          0.06531819	          0.30938067	          0.41634769	          0.28277132	          0.28048712	          0.28499463	          0.37697426	          0.05000000	          0.05920302	          0.16874164	          0.05000005	          0.05000001	          0.05000005	          0.05000005	          0.05000001	          0.05000001	
          0.56321057	         -2.91573209	          2.67475886	         -6.45627640	          0.70711068	          0.85387541	          0.00279077	         31.02232597	          3.69889734	         -2.75699127	        -18.57228115	         -2.71442492	          6.88616382	        -14.52922897	         -9.28759357	          5.95714782	         -0.15515160	         -4.35418220	         11.69689788	          0.00871323	          0.47790018	         -0.07856704	         23.70217858	         -1.90598982	         -1.18777622	          2.25968196	        -11.19164493	        -13.54259541	          8.66761388	          9.09223965	        -13.47555505	         18.98334011	         12.29398859	         39.06316951	         86.51662706	         86.51662706	          0.05000000	          0.05000005	          0.13625088	          0.05000002	          0.05000003	          0.05000007	          0.05000007	          0.05000014	          0.27345448	          0.05000007	          0.05000051	          0.09827885	          0.22972895	          0.30959613	          0.22034616	          0.15486770	          0.05000037	          0.05352220	          0.08274741	          0.10992351	          0.15436252	          0.14615959	          0.05000008	          0.05000020	          0.36287226	          0.17480736	          0.11341167	          0.05920286	          0.14057254	          0.17539759	          0.13991022	          0.05539453	          0.06430889	          0.05000002	          0.06494065	          0.07246179	          0.07009952	          0.51933158	          0.39270137	          0.25124448	          0.33628667	          0.54921047	          0.28241060	          0.05801915	          0.07642574	          0.08281163	          0.20187029	          0.07736510	          0.05830205	          0.25327172	          0.15994648	          0.08300137	          0.05000172	          0.05000024	          0.05000046	          0.06284416	          0.08669820	          0.20962148	          0.14279770	          0.07009279	          0.05920328	          0.05920298	          0.26730205	          0.09833889	          0.05000161	          0.05000492	          0.05000600	          0.05920120	          0.34629885	          0.61258954	          0.05920271	          0.05920273	          0.05919959	          0.21603916	          0.15513544	          0.16314448	          0.16313647	          0.26128894	          0.35162846	          0.23881588	          0.23688684	          0.24069375	          0.31837556	          0.05000000	          0.05000023	          0.16751135	          0.05000003	          0.05000000	          0.05000004	          0.06118863	          0.05920280	          0.05000013	
          0.57425392	         -2.90243330	          2.76243900	         -6.70705842	          0.72424514	          0.85277787	          0.00258469	         30.28015524	          3.98704796	         -2.48125735	        -18.26163560	         -3.01414191	          6.67737499	        -15.16461487	        -11.57236125	          5.48139515	         -1.28120212	         -4.86613089	         12.62406111	         -0.00629734	          0.44072265	         -0.19385976	         24.52071243	         -1.66535373	         -1.41567076	          2.33409963	        -12.37974187	        -13.53608318	          8.63163657	          8.78513536	        -13.48933488	         19.01768433	         12.30098707	         40.28339599	         86.51662706	         86.51662706	          0.26273027	          0.26902625	          0.34840352	          0.34749683	          0.23404925	          0.19905035	          0.07062656	          0.05001549	          0.23094731	          0.06221944	          0.05000121	          0.08300191	          0.19401874	          0.26147097	          0.18609449	          0.15563418	          0.05000018	          0.05005368	          0.06988844	          0.20739891	          0.19792179	          0.13214437	          0.05000062	          0.05000017	          0.30646557	          0.14763447	          0.22633191	          0.05000009	          0.11872126	          0.14813294	          0.11816189	          0.05000035	          0.05431244	          0.05618427	          0.05484597	          0.06119799	          0.05920293	          0.58086311	          0.43129291	          0.21673802	          0.52264251	          0.62469566	          0.29707400	          0.07473101	          0.09293731	          0.06993896	          0.27670175	          0.06533908	          0.05000002	          0.32675295	          0.13508360	          0.07009923	          0.05155606	          0.05000008	          0.05000006	          0.05307538	          0.07322155	          0.17703694	          0.12060059	          0.05919727	          0.05000060	          0.05000027	          0.28920168	          0.08305324	          0.05000035	          0.05000054	          0.05000030	          0.05000018	          0.29246843	          0.57082100	          0.05000004	          0.05000020	          0.05000004	          0.18245693	          0.13102042	          0.13778449	          0.13777773	          0.22067284	          0.29696952	          0.20169311	          0.20006395	          0.20327913	          0.26888566	          0.05000000	          0.10552619	          0.19156024	          0.05000004	          0.05000002	          0.05000005	          0.06727809	          0.05000002	          0.05000001	
          0.58529726	         -2.88742042	          2.83867264	         -6.91928065	          0.74139143	          0.85174189	          0.00235017	         29.47703589	          4.26209852	         -2.20737693	        -17.83603068	         -3.29009366	          6.46487872	        -15.76683374	        -14.00955408	          5.13240884	         -2.57664863	         -5.39335113	         13.48363138	         -0.00885531	          0.39143721	         -0.20138510	         25.05443849	         -1.42971184	         -1.63649863	          2.39826880	        -13.50422597	        -13.52833707	          8.65581970	          8.42654043	        -13.50989964	         18.99829560	         12.30705451	         41.44447612	         86.51662706	         86.51662706	          0.35653601	          0.39168792	          0.45600018	          0.29348034	          0.19766873	          0.26961388	          0.07117393	          0.10921039	          0.19504768	          0.06884439	          0.05000017	          0.07009970	          0.16385952	          0.22083702	          0.23763906	          0.19203439	          0.05000010	          0.05000333	          0.13437655	          0.28214028	          0.23862687	          0.19150890	          0.05000004	          0.05000004	          0.25882703	          0.12468545	          0.22808965	          0.05000001	          0.13831676	          0.21368864	          0.15850067	          0.05000000	          0.05000001	          0.05000000	          0.05000000	          0.05168509	          0.05000015	          0.65969261	          0.36425057	          0.18304722	          0.67715804	          0.64592455	          0.40671615	          0.09176007	          0.07849066	          0.05906730	          0.23368984	          0.05518245	          0.05000003	          0.27596086	          0.11408554	          0.05920268	          0.07030062	          0.05000007	          0.05000007	          0.05000003	          0.06183968	          0.19191952	          0.13144331	          0.05000023	          0.05000418	          0.07207093	          0.25046210	          0.07014321	          0.05000019	          0.05000091	          0.05000063	          0.05000049	          0.24700564	          0.51193562	          0.05000005	          0.05000023	          0.05000005	          0.15409489	          0.11636719	          0.11636721	          0.11636718	          0.18637031	          0.25080705	          0.17034089	          0.16896499	          0.17168042	          0.22708872	          0.06857899	          0.13586227	          0.16178329	          0.05000023	          0.16090459	          0.05000113	          0.09971553	          0.05000000	          0.05000001	
